<?xml version="1.0" encoding="utf-8"?>
<!-- Generator: Adobe Illustrator 21.0.2, SVG Export Plug-In . SVG Version: 6.00 Build 0)  -->
<svg version="1.1" id="Layer_1" xmlns="http://www.w3.org/2000/svg" xmlns:xlink="http://www.w3.org/1999/xlink" x="0px" y="0px"
	 viewBox="0 0 733 155" style="enable-background:new 0 0 733 155;" xml:space="preserve">
<style type="text/css">
	.st0{fill:url(#SVGID_1_);}
	.st1{fill:url(#SVGID_2_);}
	.st2{fill:#231F20;}
</style>
<g>
	<linearGradient id="SVGID_1_" gradientUnits="userSpaceOnUse" x1="91.9583" y1="70.3349" x2="62.8472" y2="84.4874">
		<stop  offset="0" style="stop-color:#0B998E"/>
		<stop  offset="1" style="stop-color:#3A72B8"/>
	</linearGradient>
	<polygon class="st0" points="68.1,65.4 89.8,65.4 86.7,89.4 65,89.4 	"/>
	<linearGradient id="SVGID_2_" gradientUnits="userSpaceOnUse" x1="367.39" y1="-124.7059" x2="367.39" y2="251.8589">
		<stop  offset="0" style="stop-color:#00ADEE"/>
		<stop  offset="1" style="stop-color:#2E3191"/>
	</linearGradient>
	<path class="st1" d="M619.4,82.3c-3.8-3.6-8.6-5.4-14.4-5.4c-5.7,0-10.4,1.8-14.3,5.4c-3.8,3.6-6,8.3-6.5,14.1h41.7
		C625.4,90.6,623.2,85.9,619.4,82.3z M619.4,82.3c-3.8-3.6-8.6-5.4-14.4-5.4c-5.7,0-10.4,1.8-14.3,5.4c-3.8,3.6-6,8.3-6.5,14.1h41.7
		C625.4,90.6,623.2,85.9,619.4,82.3z M1.4,0v154.8h732V0H1.4z M122.7,89.4v16.1h-21.2l-3,23.7H81.8l3-23.7H63l-3,23.7H43.5l3-23.7
		H27V89.4h21.3l3.1-24H32.1V49.3h21.3l3-23.7H73l-3,23.7h21.8l3-23.7h16.6l-3,23.7h19.3l0.1,16.2h-21.3l-3,24H122.7z M280.1,129.3
		h-19.7l-51.7-63v63H185V25.5h19.8l51.6,63v-63h23.7V129.3z M383.3,45.1h-33.2v84.1h-24V45.1H293V25.5h90.4V45.1z M420.2,129.3h-24
		V25.5h24V129.3z M466.8,94.6c2.8,5,6.8,9,11.8,11.8c5,2.8,10.8,4.2,17.2,4.2c10.4,0,19.1-4.1,26.1-12.3l15.4,14.2
		c-4.9,6-11.1,10.6-18.4,13.8c-7.3,3.2-15.5,4.7-24.5,4.7c-10.6,0-20.1-2.3-28.7-6.9c-8.5-4.6-15.3-11-20.2-19.1
		c-4.9-8.2-7.3-17.4-7.3-27.6c0-10.3,2.4-19.5,7.3-27.6c4.9-8.2,11.6-14.5,20.2-19.1c8.5-4.6,18.1-6.9,28.8-6.9
		c9,0,17.1,1.6,24.4,4.8s13.4,7.7,18.3,13.6l-15.4,14.2c-7-8.1-15.7-12.1-26.1-12.1c-6.4,0-12.2,1.4-17.2,4.2
		c-5,2.8-9,6.7-11.8,11.8c-2.8,5-4.2,10.8-4.2,17.2C462.6,83.8,464,89.5,466.8,94.6z M560.1,129.3h-7.9V70.5h7.9V129.3z M560.3,56
		c-1.1,1.1-2.5,1.7-4.1,1.7c-1.6,0-3-0.6-4.1-1.7c-1.1-1.1-1.7-2.5-1.7-4c0-1.5,0.6-2.8,1.7-3.9s2.5-1.7,4.1-1.7
		c1.6,0,3,0.5,4.1,1.6c1.1,1.1,1.7,2.4,1.7,3.8C562,53.5,561.5,54.9,560.3,56z M633.4,102.3h-49.2c0.4,6.1,2.8,11,7,14.8
		c4.2,3.8,9.6,5.6,16.1,5.6c3.6,0,7-0.7,10.1-2c3-1.3,5.7-3.2,7.9-5.8l4.5,5.1c-2.6,3.1-5.9,5.5-9.8,7.2c-3.9,1.6-8.2,2.5-12.9,2.5
		c-6,0-11.4-1.3-16-3.9c-4.7-2.6-8.3-6.1-10.9-10.7c-2.6-4.5-3.9-9.7-3.9-15.4c0-5.7,1.3-10.9,3.8-15.4c2.5-4.5,5.9-8.1,10.3-10.6
		c4.3-2.5,9.3-3.8,14.7-3.8c5.4,0,10.3,1.3,14.6,3.8c4.3,2.5,7.7,6,10.2,10.6c2.5,4.5,3.7,9.7,3.7,15.5L633.4,102.3z M703.8,129.3
		h-7.9V96c0-6.1-1.5-10.8-4.6-14s-7.4-4.8-13.1-4.8c-6.3,0-11.3,1.9-15,5.7c-3.7,3.8-5.5,9-5.5,15.6v30.8h-7.9V70.5h7.6v10.8
		c2.2-3.6,5.2-6.3,9-8.3c3.8-2,8.3-3,13.3-3c7.4,0,13.2,2.1,17.6,6.4c4.4,4.3,6.5,10.5,6.5,18.7V129.3z M605,76.9
		c-5.7,0-10.4,1.8-14.3,5.4c-3.8,3.6-6,8.3-6.5,14.1h41.7c-0.5-5.8-2.7-10.5-6.5-14.1C615.6,78.7,610.8,76.9,605,76.9z"/>
	<polygon class="st2" points="68.1,65.4 89.8,65.4 86.7,89.4 65,89.4 	"/>
	<path class="st2" d="M0,0v154.8h154.8V0H0z M122.7,89.4v16.1h-21.2l-3,23.7H81.8l3-23.7H63l-3,23.7H43.5l3-23.7H27V89.4h21.3
		l3.1-24H32.1V49.3h21.3l3-23.7H73l-3,23.7h21.8l3-23.7h16.6l-3,23.7h19.3l0.1,16.2h-21.3l-3,24H122.7z"/>
</g>
</svg>
